<svg width="338" height="109" viewBox="0 0 338 109" fill="none" xmlns="http://www.w3.org/2000/svg">
    <path d="M9.6499 0L9.6499 107.6L13.1799 107.6L13.1799 -1.54301e-07L9.6499 0Z" fill="white"/>
    <path d="M17.04 0L17.04 107.6L18.87 107.6L18.87 -7.99919e-08L17.04 0Z" fill="white"/>
    <path d="M23.1899 0.00012207L23.1899 94.7001L28.2699 94.7001L28.2699 0.000121848L23.1899 0.00012207Z" fill="white"/>
    <path d="M32.6001 0.00012207L32.6001 94.7001L34.4301 94.7001L34.4301 0.00012199L32.6001 0.00012207Z" fill="white"/>
    <path d="M39.2998 0.00012207L39.2998 94.7001L43.2998 94.7001L43.2998 0.000121895L39.2998 0.00012207Z" fill="white"/>
    <path d="M46.3398 0.00012207L46.3398 94.7001L48.1698 94.7001L48.1698 0.00012199L46.3398 0.00012207Z" fill="white"/>
    <path d="M50.48 0.00012207L50.48 94.7001L52.31 94.7001L52.31 0.00012199L50.48 0.00012207Z" fill="white"/>
    <path d="M54.6899 0.00012207L54.6899 94.7001L59.0399 94.7001L59.0399 0.00012188L54.6899 0.00012207Z" fill="white"/>
    <path d="M63.73 0.00012207L63.73 94.7001L65.56 94.7001L65.56 0.00012199L63.73 0.00012207Z" fill="white"/>
    <path d="M71.5098 0.00012207L71.5098 94.7001L73.3398 94.7001L73.3397 0.00012199L71.5098 0.00012207Z" fill="white"/>
    <path d="M70.3101 0.00012207L70.3101 94.7001L70.9501 94.7001L70.9501 0.000122042L70.3101 0.00012207Z" fill="white"/>
    <path d="M83.7798 0.00012207L83.7798 94.7001L84.4198 94.7001L84.4198 0.000122042L83.7798 0.00012207Z" fill="white"/>
    <path d="M115.78 0.00012207L115.78 94.7001L116.42 94.7001L116.42 0.000122042L115.78 0.00012207Z" fill="white"/>
    <path d="M138.82 0.00012207L138.82 94.7001L139.46 94.7001L139.46 0.000122042L138.82 0.00012207Z" fill="white"/>
    <path d="M254.65 0.00012207L254.65 94.7001L255.29 94.7001L255.29 0.000122042L254.65 0.00012207Z" fill="white"/>
    <path d="M244.56 0.00012207L244.56 94.7001L245.2 94.7001L245.2 0.000122042L244.56 0.00012207Z" fill="white"/>
    <path d="M292.47 0.00012207L292.47 94.7001L293.11 94.7001L293.11 0.000122042L292.47 0.00012207Z" fill="white"/>
    <path d="M316.42 0.00012207L316.42 94.7001L317.06 94.7001L317.06 0.000122042L316.42 0.00012207Z" fill="white"/>
    <path d="M222.38 0.00012207L222.38 94.7001L223.02 94.7001L223.02 0.000122042L222.38 0.00012207Z" fill="white"/>
    <path d="M29.7397 0.00012207L29.7397 94.7001L30.3797 94.7001L30.3797 0.000122042L29.7397 0.00012207Z" fill="white"/>
    <path d="M77.5698 0.00012207L77.5698 94.7001L82.8598 94.7001L82.8598 0.000121839L77.5698 0.00012207Z" fill="white"/>
    <path d="M87.0801 0.00012207L87.0801 94.7001L88.9101 94.7001L88.9101 0.00012199L87.0801 0.00012207Z" fill="white"/>
    <path d="M144.54 0.00012207L144.54 94.7001L146.37 94.7001L146.37 0.00012199L144.54 0.00012207Z" fill="white"/>
    <path d="M90.8198 0.00012207L90.8198 94.7001L92.6498 94.7001L92.6498 0.00012199L90.8198 0.00012207Z" fill="white"/>
    <path d="M94.8599 0.00012207L94.8599 94.7001L96.6899 94.7001L96.6899 0.00012199L94.8599 0.00012207Z" fill="white"/>
    <path d="M102.64 0.00012207L102.64 94.7001L104.47 94.7001L104.47 0.00012199L102.64 0.00012207Z" fill="white"/>
    <path d="M108.37 0.00012207L108.37 94.7001L114.31 94.7001L114.31 0.000121811L108.37 0.00012207Z" fill="white"/>
    <path d="M118.21 0.00012207L118.21 94.7001L120.04 94.7001L120.04 0.00012199L118.21 0.00012207Z" fill="white"/>
    <path d="M125.99 0.00012207L125.99 94.7001L127.82 94.7001L127.82 0.00012199L125.99 0.00012207Z" fill="white"/>
    <path d="M131.71 0.00012207L131.71 94.7001L137.66 94.7001L137.66 0.00012181L131.71 0.00012207Z" fill="white"/>
    <path d="M141.56 0.00012207L141.56 94.7001L143.39 94.7001L143.39 0.00012199L141.56 0.00012207Z" fill="white"/>
    <path d="M151.35 0.00012207L151.35 94.7001L153.18 94.7001L153.18 0.00012199L151.35 0.00012207Z" fill="white"/>
    <path d="M155.5 0.00012207L155.5 94.7001L160.57 94.7001L160.57 0.000121849L155.5 0.00012207Z" fill="white"/>
    <path d="M164.9 0.000488281L164.9 107.87L166.73 107.87L166.73 0.000488201L164.9 0.000488281Z" fill="white"/>
    <path d="M172.23 0.000488281L172.23 107.87L174.06 107.87L174.06 0.000488201L172.23 0.000488281Z" fill="white"/>
    <path d="M180.47 0.00012207L180.47 94.7001L182.3 94.7001L182.3 0.00012199L180.47 0.00012207Z" fill="white"/>
    <path d="M183.49 0.00012207L183.49 94.7001L185.32 94.7001L185.32 0.00012199L183.49 0.00012207Z" fill="white"/>
    <path d="M188.32 0.00012207L188.32 94.7001L191.56 94.7001L191.56 0.000121929L188.32 0.00012207Z" fill="white"/>
    <path d="M196.03 0.00012207L196.03 94.7001L197.86 94.7001L197.86 0.00012199L196.03 0.00012207Z" fill="white"/>
    <path d="M202.12 0.00012207L202.12 94.7001L207.34 94.7001L207.34 0.000121842L202.12 0.00012207Z" fill="white"/>
    <path d="M211.6 0.00012207L211.6 94.7001L213.43 94.7001L213.43 0.00012199L211.6 0.00012207Z" fill="white"/>
    <path d="M219.38 0.00012207L219.38 94.7001L221.21 94.7001L221.21 0.00012199L219.38 0.00012207Z" fill="white"/>
    <path d="M225.83 0.00012207L225.83 94.7001L230.32 94.7001L230.32 0.000121874L225.83 0.00012207Z" fill="white"/>
    <path d="M234.94 0.00012207L234.94 94.7001L236.77 94.7001L236.77 0.00012199L234.94 0.00012207Z" fill="white"/>
    <path d="M240.71 0.00012207L240.71 94.7001L242.54 94.7001L242.54 0.00012199L240.71 0.00012207Z" fill="white"/>
    <path d="M250.51 0.00012207L250.51 94.7001L252.34 94.7001L252.34 0.00012199L250.51 0.00012207Z" fill="white"/>
    <path d="M261.43 0.00012207L261.43 94.7001L265.06 94.7001L265.06 0.000121912L261.43 0.00012207Z" fill="white"/>
    <path d="M266.07 0.00012207L266.07 94.7001L267.9 94.7001L267.9 0.00012199L266.07 0.00012207Z" fill="white"/>
    <path d="M275.87 0.00012207L275.87 94.7001L277.7 94.7001L277.7 0.00012199L275.87 0.00012207Z" fill="white"/>
    <path d="M280.72 0.00012207L280.72 94.7001L284.38 94.7001L284.38 0.00012191L280.72 0.00012207Z" fill="white"/>
    <path d="M289.42 0.00012207L289.42 94.7001L291.25 94.7001L291.25 0.00012199L289.42 0.00012207Z" fill="white"/>
    <path d="M297.2 0.00012207L297.2 94.7001L299.03 94.7001L299.03 0.00012199L297.2 0.00012207Z" fill="white"/>
    <path d="M304.07 0.00012207L304.07 94.7001L307.73 94.7001L307.73 0.00012191L304.07 0.00012207Z" fill="white"/>
    <path d="M312.77 0.00012207L312.77 94.7001L314.6 94.7001L314.6 0.00012199L312.77 0.00012207Z" fill="white"/>
    <path d="M320.55 0.00012207L320.55 94.7001L325.47 94.7001L325.47 0.000121855L320.55 0.00012207Z" fill="white"/>
    <path d="M328.33 0.000488281L328.33 107.87L330.16 107.87L330.16 0.000488201L328.33 0.000488281Z" fill="white"/>
    <path d="M336.11 0.000488281L336.11 107.87L337.94 107.87L337.94 0.000488201L336.11 0.000488281Z" fill="white"/>
    <path d="M0 107.87L-3.32211e-08 107.11L1 106.11C3.35 103.88 4.41 102.691 4.42 101.311C4.44561 101.066 4.41598 100.819 4.33327 100.588C4.25056 100.356 4.1169 100.146 3.94217 99.9735C3.76744 99.8007 3.55611 99.6694 3.32379 99.5892C3.09148 99.5091 2.84412 99.4822 2.60001 99.5105C1.86258 99.5283 1.15478 99.8044 0.600006 100.291L0.210006 99.4205C0.934775 98.8104 1.85259 98.4772 2.8 98.4805C3.16579 98.4476 3.53438 98.493 3.88132 98.6135C4.22825 98.734 4.5456 98.9268 4.81229 99.1793C5.07898 99.4318 5.28892 99.7382 5.42818 100.078C5.56743 100.418 5.63283 100.783 5.62001 101.151C5.62001 102.851 4.39 104.22 2.45 106.08L1.72 106.76L5.84 106.76L5.84 107.76L0 107.87Z" fill="white"/>
    <path d="M50.6201 105.541C50.6274 104.991 50.8071 104.459 51.1337 104.017C51.4602 103.576 51.9172 103.248 52.4401 103.08C52.0201 102.92 51.6572 102.639 51.3973 102.272C51.1374 101.905 50.9922 101.47 50.9801 101.02C50.9945 100.669 51.0809 100.325 51.2338 100.008C51.3868 99.6915 51.603 99.4097 51.8692 99.18C52.1354 98.9504 52.4459 98.7778 52.7814 98.673C53.117 98.5681 53.4705 98.5332 53.8201 98.5704C54.1465 98.5285 54.478 98.5552 54.7936 98.6484C55.1092 98.7417 55.4019 98.8996 55.653 99.1122C55.9042 99.3248 56.1083 99.5875 56.2525 99.8833C56.3966 100.179 56.4775 100.502 56.4901 100.83C56.4839 101.299 56.3364 101.755 56.067 102.139C55.7977 102.522 55.4188 102.816 54.9801 102.98C55.499 103.135 55.9551 103.452 56.2823 103.883C56.6095 104.315 56.7909 104.839 56.8001 105.38C56.7805 105.764 56.6829 106.14 56.5133 106.485C56.3438 106.83 56.1058 107.136 55.8138 107.386C55.5219 107.636 55.1822 107.823 54.8154 107.938C54.4485 108.052 54.0623 108.09 53.6801 108.051C51.8001 108.031 50.6201 106.881 50.6201 105.541ZM55.5601 105.48C55.5601 104.37 54.7901 103.83 53.5601 103.48C53.1107 103.56 52.702 103.791 52.4019 104.135C52.1018 104.478 51.9282 104.914 51.9101 105.37C51.9022 105.61 51.9452 105.849 52.0361 106.071C52.127 106.293 52.2638 106.493 52.4376 106.658C52.6114 106.823 52.8182 106.95 53.0444 107.03C53.2706 107.109 53.5111 107.14 53.7501 107.12C53.9787 107.141 54.2091 107.114 54.4268 107.041C54.6445 106.969 54.8447 106.851 55.0148 106.697C55.1849 106.543 55.3211 106.356 55.415 106.146C55.5089 105.937 55.5583 105.71 55.5601 105.48ZM52.1401 100.89C52.1401 101.81 52.8401 102.3 53.9001 102.59C54.2813 102.5 54.6229 102.288 54.8736 101.987C55.1242 101.686 55.2704 101.312 55.2901 100.921C55.3026 100.716 55.2706 100.511 55.1964 100.32C55.1222 100.129 55.0075 99.9563 54.8602 99.8138C54.713 99.6713 54.5366 99.5624 54.3432 99.4945C54.1499 99.4266 53.9441 99.4014 53.7401 99.4205C53.5364 99.4024 53.3312 99.4271 53.1376 99.4928C52.9439 99.5585 52.7661 99.6639 52.6156 99.8022C52.465 99.9406 52.3449 100.109 52.263 100.296C52.1812 100.484 52.1393 100.686 52.1401 100.89Z" fill="white"/>
    <path d="M65.9 106.99C66.2325 107.023 66.5674 107.023 66.9 106.99C67.618 106.904 68.2902 106.593 68.82 106.1C69.5 105.455 69.9318 104.592 70.04 103.66L69.99 103.66C69.7303 103.981 69.4006 104.238 69.0261 104.411C68.6517 104.585 68.2425 104.67 67.83 104.66C67.4635 104.668 67.0994 104.599 66.7606 104.46C66.4218 104.32 66.1155 104.111 65.861 103.847C65.6066 103.584 65.4094 103.27 65.2819 102.926C65.1544 102.583 65.0992 102.216 65.12 101.85C65.1039 101.428 65.1728 101.007 65.3226 100.613C65.4724 100.218 65.7001 99.8571 65.9921 99.5521C66.2841 99.247 66.6345 99.0038 67.0223 98.8369C67.4102 98.6699 67.8277 98.5827 68.25 98.5803C70.13 98.5803 71.25 100.11 71.25 102.45C71.2932 103.238 71.1753 104.027 70.9037 104.768C70.632 105.509 70.2123 106.187 69.67 106.76C68.9389 107.452 68.0008 107.884 67 107.99C66.6235 108.054 66.2414 108.077 65.86 108.06L65.9 106.99ZM66.35 101.71C66.3155 101.961 66.3354 102.216 66.4082 102.458C66.4811 102.7 66.6053 102.923 66.7723 103.113C66.9393 103.303 67.1452 103.455 67.376 103.558C67.6069 103.661 67.8572 103.713 68.11 103.71C68.4742 103.724 68.8352 103.639 69.1542 103.462C69.4732 103.286 69.738 103.026 69.92 102.71C70.0037 102.576 70.0455 102.419 70.04 102.26C70.04 100.69 69.46 99.4903 68.16 99.4903C67.1 99.4803 66.35 100.38 66.35 101.71Z" fill="white"/>
    <path d="M78.22 106.44C78.8257 106.802 79.5146 107.002 80.22 107.02C81.81 107.02 82.31 106.02 82.29 105.24C82.29 103.96 81.12 103.41 79.92 103.41L79.23 103.41L79.23 102.47L79.92 102.47C80.82 102.47 81.97 102.01 81.97 100.92C81.97 100.18 81.5 99.5401 80.36 99.5401C79.7015 99.5576 79.0623 99.766 78.52 100.14L78.2 99.24C78.9139 98.775 79.748 98.5283 80.6 98.5301C82.41 98.5301 83.23 99.61 83.23 100.72C83.2202 101.216 83.0489 101.695 82.7421 102.085C82.4353 102.475 82.0098 102.754 81.53 102.88C82.0882 102.974 82.595 103.263 82.961 103.695C83.327 104.127 83.5285 104.674 83.53 105.24C83.53 106.71 82.38 108 80.18 108C79.3411 108.01 78.5151 107.792 77.79 107.37L78.22 106.44Z" fill="white"/>
    <path d="M96.6399 98.6906L96.6399 99.5105L92.6399 107.87L91.3499 107.87L95.3499 99.7505L90.8599 99.7505L90.8599 98.7505L96.6399 98.6906Z" fill="white"/>
    <path d="M103.42 107.87L103.42 107.11L104.42 106.11C106.76 103.88 107.82 102.691 107.84 101.311C107.866 101.066 107.836 100.819 107.753 100.588C107.67 100.356 107.537 100.146 107.362 99.9735C107.187 99.8007 106.976 99.6694 106.744 99.5892C106.511 99.5091 106.264 99.4822 106.02 99.5105C105.299 99.5373 104.61 99.813 104.07 100.291L103.67 99.4205C104.397 98.8081 105.319 98.4748 106.27 98.4805C106.635 98.4475 107.003 98.4928 107.35 98.6134C107.696 98.734 108.013 98.927 108.279 99.1797C108.545 99.4324 108.754 99.7389 108.892 100.079C109.03 100.419 109.094 100.784 109.08 101.151C109.08 102.851 107.85 104.22 105.92 106.08L105.18 106.76L109.31 106.76L109.31 107.76L103.42 107.87Z" fill="white"/>
    <path d="M121.42 99.5602C121.105 99.5482 120.79 99.5683 120.48 99.6201C119.662 99.734 118.906 100.116 118.328 100.706C117.751 101.296 117.386 102.06 117.29 102.88C117.658 102.408 118.169 102.067 118.746 101.907C119.323 101.746 119.936 101.775 120.495 101.989C121.054 102.202 121.531 102.59 121.854 103.094C122.177 103.598 122.329 104.193 122.29 104.79C122.313 105.202 122.253 105.613 122.113 106.001C121.973 106.389 121.757 106.744 121.477 107.047C121.197 107.349 120.859 107.592 120.483 107.761C120.108 107.93 119.702 108.021 119.29 108.03C117.29 108.03 116.04 106.5 116.04 104.11C115.99 102.58 116.547 101.091 117.59 99.9701C118.396 99.2105 119.428 98.7363 120.53 98.6201C120.831 98.572 121.135 98.5487 121.44 98.5502L121.42 99.5602ZM121.06 104.86C121.094 104.594 121.071 104.323 120.991 104.067C120.912 103.811 120.777 103.575 120.598 103.375C120.418 103.176 120.198 103.017 119.951 102.911C119.705 102.805 119.438 102.754 119.17 102.76C118.797 102.764 118.433 102.872 118.119 103.072C117.804 103.271 117.552 103.555 117.39 103.89C117.291 104.056 117.242 104.247 117.25 104.44C117.25 105.95 117.97 107.07 119.25 107.07C120.34 107.07 121.06 106.17 121.06 104.86Z" fill="white"/>
    <path d="M131.62 99.8505L130.03 100.71L129.79 99.7605L131.79 98.6906L132.79 98.6906L132.79 107.87L131.59 107.87L131.62 99.8505Z" fill="white"/>
    <path d="M221.05 107.87L221.05 107.11L222.05 106.11C224.39 103.88 225.45 102.691 225.47 101.311C225.494 101.066 225.463 100.818 225.379 100.587C225.295 100.356 225.16 100.146 224.985 99.9734C224.809 99.8008 224.597 99.6697 224.365 99.5896C224.132 99.5095 223.884 99.4825 223.64 99.5105C222.923 99.5396 222.238 99.8151 221.7 100.291L221.3 99.4205C222.027 98.8081 222.949 98.4748 223.9 98.4805C224.265 98.4475 224.633 98.4928 224.98 98.6134C225.326 98.734 225.643 98.927 225.909 99.1797C226.175 99.4324 226.384 99.7389 226.522 100.079C226.66 100.419 226.724 100.784 226.71 101.151C226.71 102.851 225.48 104.22 223.55 106.08L222.81 106.76L226.94 106.76L226.94 107.76L221.05 107.87Z" fill="white"/>
    <path d="M239.8 98.6906L239.8 99.5105L235.8 107.87L234.51 107.87L238.51 99.7505L234.02 99.7505L234.02 98.7505L239.8 98.6906Z" fill="white"/>
    <path d="M246.85 106.44C247.456 106.803 248.145 107.003 248.85 107.02C250.45 107.02 250.95 106.02 250.93 105.24C250.93 103.96 249.76 103.41 248.56 103.41L247.87 103.41L247.87 102.47L248.56 102.47C249.46 102.47 250.56 102.01 250.56 100.92C250.56 100.18 250.09 99.5401 248.95 99.5401C248.291 99.5559 247.652 99.7645 247.11 100.14L246.78 99.24C247.498 98.7752 248.335 98.5286 249.19 98.5301C250.99 98.5301 251.81 99.61 251.81 100.72C251.803 101.215 251.633 101.694 251.328 102.084C251.023 102.474 250.599 102.754 250.12 102.88C250.687 102.964 251.206 103.248 251.582 103.68C251.958 104.113 252.167 104.667 252.17 105.24C252.17 106.71 251.02 108 248.82 108C247.981 108.01 247.155 107.792 246.43 107.37L246.85 106.44Z" fill="white"/>
    <path d="M264.54 99.5602C264.229 99.5485 263.917 99.5685 263.61 99.6201C262.793 99.734 262.036 100.116 261.459 100.706C260.882 101.296 260.516 102.06 260.42 102.88C260.789 102.408 261.299 102.067 261.876 101.907C262.453 101.746 263.066 101.775 263.625 101.989C264.185 102.202 264.661 102.59 264.984 103.094C265.307 103.598 265.46 104.193 265.42 104.79C265.442 105.201 265.381 105.612 265.24 106C265.1 106.387 264.884 106.742 264.604 107.044C264.325 107.346 263.987 107.589 263.612 107.758C263.237 107.927 262.832 108.02 262.42 108.03C260.42 108.03 259.17 106.5 259.17 104.11C259.12 102.58 259.677 101.091 260.72 99.9701C261.523 99.2067 262.558 98.7319 263.66 98.6201C263.958 98.5724 264.259 98.549 264.56 98.5502L264.54 99.5602ZM264.19 104.86C264.225 104.594 264.202 104.323 264.122 104.067C264.042 103.811 263.908 103.575 263.728 103.375C263.549 103.176 263.328 103.017 263.082 102.911C262.835 102.805 262.568 102.754 262.3 102.76C261.928 102.764 261.564 102.872 261.249 103.072C260.935 103.271 260.682 103.555 260.52 103.89C260.421 104.056 260.373 104.247 260.38 104.44C260.38 105.95 261.1 107.07 262.38 107.07C263.47 107.07 264.19 106.17 264.19 104.86Z" fill="white"/>
    <path d="M274.8 99.8505L273.21 100.71L272.97 99.7605L274.97 98.6906L276.03 98.6906L276.03 107.87L274.8 107.87L274.8 99.8505Z" fill="white"/>
    <path d="M290.91 103.18C290.91 106.3 289.75 108.03 287.71 108.03C285.92 108.03 284.71 106.34 284.71 103.31C284.71 100.28 286.04 98.5302 287.91 98.5302C289.78 98.5302 290.91 100.26 290.91 103.18ZM285.91 103.32C285.91 105.71 286.64 107.07 287.77 107.07C288.9 107.07 289.65 105.58 289.65 103.24C289.65 100.9 289.07 99.4901 287.79 99.4901C286.71 99.4901 285.92 100.82 285.92 103.32L285.91 103.32Z" fill="white"/>
</svg>
