<svg width="24" height="23" viewBox="0 0 24 23" fill="none" xmlns="http://www.w3.org/2000/svg">
    <path d="M18.8847 15.7461L14.1024 9.9007L10.4481 13.5564L10.4481 13.5564C10.3652 13.6391 10.2655 13.7029 10.1556 13.7434C10.0458 13.7839 9.92848 13.8 9.81178 13.7908C9.69509 13.7816 9.58178 13.7471 9.47967 13.6899C9.37756 13.6326 9.28908 13.5539 9.22031 13.4592L3.50369 5.59887L3.50364 5.5989L3.50167 5.59598C3.38477 5.42205 3.33984 5.20959 3.37632 5.00323C3.4128 4.79688 3.52784 4.61269 3.69728 4.48938C3.86672 4.36608 4.07736 4.31325 4.28494 4.34201C4.49251 4.37076 4.68086 4.47886 4.8104 4.64358L4.81046 4.64354L4.81257 4.64644L9.97202 11.7407L13.5904 8.12227L13.5905 8.12221C13.6705 8.04235 13.7663 7.98013 13.8718 7.93954C13.9773 7.89895 14.0902 7.88089 14.2031 7.88654C14.316 7.89218 14.4264 7.9214 14.5274 7.97231C14.6283 8.02322 14.7174 8.0947 14.7891 8.18214L14.7891 8.1822L19.7837 14.2882V10.8393C19.7837 10.6245 19.869 10.4185 20.0209 10.2667C20.1728 10.1148 20.3788 10.0295 20.5935 10.0295C20.8083 10.0295 21.0143 10.1148 21.1662 10.2667C21.3181 10.4185 21.4034 10.6245 21.4034 10.8393V16.556C21.4034 16.7708 21.3181 16.9768 21.1662 17.1286C21.0143 17.2805 20.8083 17.3658 20.5935 17.3658H14.8769C14.6621 17.3658 14.4561 17.2805 14.3042 17.1286C14.1523 16.9768 14.067 16.7708 14.067 16.556C14.067 16.3412 14.1523 16.1352 14.3042 15.9833C14.4561 15.8314 14.6621 15.7461 14.8769 15.7461L18.8847 15.7461Z" fill="black" stroke="black" stroke-width="0.190556"/>
</svg>
