<svg width="24" height="23" viewBox="0 0 24 23" fill="none" xmlns="http://www.w3.org/2000/svg">
    <path d="M19.103 7.36185L14.3206 13.2073L10.6664 9.55162L10.6663 9.55157C10.5835 9.46884 10.4837 9.40504 10.3739 9.36458C10.264 9.32412 10.1467 9.30795 10.03 9.31718C9.91335 9.32642 9.80004 9.36085 9.69793 9.41809C9.59582 9.47533 9.50734 9.55402 9.43857 9.64875L3.72195 17.5091L3.7219 17.5091L3.71993 17.512C3.60303 17.6859 3.5581 17.8984 3.59458 18.1047C3.63106 18.3111 3.74611 18.4953 3.91555 18.6186C4.08499 18.7419 4.29563 18.7947 4.5032 18.766C4.71078 18.7372 4.89912 18.6291 5.02867 18.4644L5.02872 18.4644L5.03083 18.4615L10.1903 11.3673L13.8087 14.9857L13.8088 14.9858C13.8888 15.0656 13.9846 15.1278 14.0901 15.1684C14.1956 15.209 14.3084 15.2271 14.4213 15.2214C14.5342 15.2158 14.6447 15.1866 14.7456 15.1357C14.8466 15.0847 14.9357 15.0133 15.0073 14.9258L15.0074 14.9258L20.0019 8.81978V12.2687C20.0019 12.4834 20.0873 12.6894 20.2391 12.8413C20.391 12.9932 20.597 13.0785 20.8118 13.0785C21.0266 13.0785 21.2326 12.9932 21.3845 12.8413C21.5363 12.6894 21.6217 12.4834 21.6217 12.2687V6.55199C21.6217 6.3372 21.5363 6.13121 21.3845 5.97933C21.2326 5.82745 21.0266 5.74212 20.8118 5.74212H15.0951C14.8804 5.74212 14.6744 5.82745 14.5225 5.97933C14.3706 6.13121 14.2853 6.3372 14.2853 6.55199C14.2853 6.76677 14.3706 6.97277 14.5225 7.12464C14.6744 7.27652 14.8804 7.36185 15.0951 7.36185H19.103Z" fill="black" stroke="black" stroke-width="0.190556"/>
</svg>
